<?xml version="1.0" encoding="utf-8"?>
<!-- Generator: Adobe Illustrator 21.1.0, SVG Export Plug-In . SVG Version: 6.00 Build 0)  -->
<svg version="1.1" id="Layer_1" xmlns="http://www.w3.org/2000/svg" xmlns:xlink="http://www.w3.org/1999/xlink" x="0px" y="0px"
	 viewBox="0 0 409.4 107.7" style="enable-background:new 0 0 409.4 107.7;" xml:space="preserve">
<style type="text/css">
	.st0{fill:url(#SVGID_1_);}
	.st1{fill:url(#SVGID_2_);}
	.st2{fill:#231F20;}
</style>
<title>logo</title>
<linearGradient id="SVGID_1_" gradientUnits="userSpaceOnUse" x1="592.4736" y1="2268.7686" x2="539.0152" y2="2322.2368" gradientTransform="matrix(1 0 0 1 -477.93 -2241.45)">
	<stop  offset="0" style="stop-color:#4BBC8D"/>
	<stop  offset="0.13" style="stop-color:#44BC97"/>
	<stop  offset="0.35" style="stop-color:#10B6B6"/>
	<stop  offset="0.57" style="stop-color:#1F9CD8"/>
	<stop  offset="0.87" style="stop-color:#0C75BC"/>
	<stop  offset="0.99" style="stop-color:#51489E"/>
</linearGradient>
<path class="st0" d="M87.6,0.4c0,0-34,33.4-40.9,47.3c-2.3,4.5-2.3,7.3,0,12.3c6.5,14.4,41.4,47.7,41.4,47.7S59.2,71,51.6,56.6
	c-0.7-1.5-0.7-3.3-0.1-4.8C57.9,38,87.6,0.4,87.6,0.4z"/>
<linearGradient id="SVGID_2_" gradientUnits="userSpaceOnUse" x1="505.1148" y1="2268.1724" x2="451.2537" y2="2322.0337" gradientTransform="matrix(1 0 0 1 -477.93 -2241.45)">
	<stop  offset="0" style="stop-color:#4BBC8D"/>
	<stop  offset="0.13" style="stop-color:#44BC97"/>
	<stop  offset="0.35" style="stop-color:#10B6B6"/>
	<stop  offset="0.57" style="stop-color:#1F9CD8"/>
	<stop  offset="0.87" style="stop-color:#0C75BC"/>
	<stop  offset="0.99" style="stop-color:#51489E"/>
</linearGradient>
<path class="st1" d="M0.5,0c0,0,34,33.4,40.9,47.3c2.3,4.5,2.3,7.2,0,12.2C34.8,73.9,0,107.3,0,107.3s28.9-36.7,36.5-51.1
	c0.7-1.5,0.7-3.3,0.1-4.8C30.2,37.6,0.5,0,0.5,0z"/>
<g>
	<g>
		<path class="st2" d="M241.9,84.1c-0.8,1.5-2,2.7-3.5,3.4c-1.7,0.9-3.7,1.3-5.6,1.2h-6.2V69.1h6.3c1.9-0.1,3.9,0.4,5.6,1.2
			c1.5,0.7,2.7,1.9,3.5,3.4C243.5,77,243.5,80.8,241.9,84.1L241.9,84.1z M238.4,84.5c1.4-1.5,2.1-3.5,2-5.6c0.1-2.1-0.6-4.1-2-5.6
			c-1.6-1.4-3.8-2.2-5.9-2H229v15.2h3.5C234.7,86.7,236.8,85.9,238.4,84.5z"/>
		<path class="st2" d="M256.6,74.4c1,0.7,1.8,1.8,2.2,3v-4h2.6v15.4h-2.6v-3.9c-0.4,1.2-1.1,2.3-2.2,3c-1.1,0.8-2.4,1.2-3.8,1.1
			c-1.3,0-2.5-0.3-3.6-1c-1.1-0.7-2-1.6-2.5-2.7c-1.2-2.7-1.2-5.7,0-8.4c0.6-1.1,1.4-2.1,2.5-2.7c1.1-0.7,2.4-1,3.6-1
			C254.2,73.1,255.5,73.6,256.6,74.4z M249.8,77c-1.9,2.4-1.9,5.8,0,8.3c1,1,2.4,1.6,3.8,1.5c0.9,0,1.9-0.2,2.7-0.7
			c0.8-0.5,1.4-1.2,1.9-2c0.5-0.9,0.7-2,0.7-3c0-1-0.2-2.1-0.7-3c-0.4-0.8-1.1-1.5-1.9-2c-0.8-0.5-1.8-0.7-2.7-0.7
			C252.1,75.4,250.8,75.9,249.8,77L249.8,77z"/>
		<path class="st2" d="M274.4,74.6c1.1,0.9,1.8,2.2,1.9,3.7h-2.4c-0.1-0.9-0.5-1.7-1.1-2.2c-0.7-0.6-1.6-0.9-2.6-0.9
			c-0.8,0-1.5,0.2-2.1,0.7c-0.5,0.4-0.8,1.1-0.8,1.8c0,0.5,0.2,1,0.5,1.4c0.4,0.4,0.8,0.6,1.3,0.8c0.7,0.2,1.4,0.4,2.1,0.6
			c0.9,0.2,1.9,0.5,2.8,0.8c0.7,0.3,1.3,0.7,1.8,1.3c0.5,0.7,0.8,1.5,0.7,2.4c0,1.2-0.5,2.3-1.4,3.1c-1.1,0.8-2.4,1.2-3.8,1.2
			c-1.6,0.1-3.2-0.4-4.5-1.3c-1.1-0.9-1.9-2.2-2-3.7h2.5c0.1,0.9,0.5,1.7,1.2,2.3c0.8,0.6,1.8,0.9,2.8,0.9c0.7,0,1.5-0.2,2.1-0.7
			c0.5-0.4,0.8-1.1,0.7-1.8c0-0.5-0.2-1.1-0.6-1.4c-0.4-0.4-0.8-0.6-1.3-0.8c-0.7-0.2-1.4-0.4-2.2-0.6c-0.9-0.2-1.8-0.5-2.7-0.8
			c-0.7-0.3-1.3-0.7-1.7-1.2c-0.5-0.7-0.8-1.5-0.7-2.3c0-1.2,0.5-2.4,1.5-3.2c1.1-0.8,2.5-1.3,3.9-1.2
			C271.7,73.1,273.2,73.6,274.4,74.6z"/>
		<path class="st2" d="M292.3,74.9c1.2,1.4,1.8,3.2,1.6,5v8.9h-2.5v-8.7c0.1-1.3-0.3-2.6-1.2-3.5c-0.8-0.8-2-1.3-3.2-1.2
			c-1.3-0.1-2.5,0.4-3.4,1.4c-0.9,1.1-1.4,2.6-1.3,4v8.2h-2.5V68.1h2.5v9c0.3-1.2,1.1-2.2,2.1-2.9c1-0.7,2.2-1,3.5-1
			C289.6,73.1,291.2,73.7,292.3,74.9z"/>
		<path class="st2" d="M310,74.2c1.1,0.7,1.9,1.6,2.5,2.7c1.2,2.7,1.2,5.7,0,8.4c-0.6,1.1-1.4,2.1-2.5,2.7c-1.1,0.7-2.4,1-3.6,1
			c-1.4,0-2.7-0.4-3.8-1.1c-1-0.7-1.8-1.8-2.1-3v3.9h-2.5V68.1h2.5v9.3c0.4-1.2,1.1-2.3,2.1-3c1.1-0.8,2.4-1.2,3.8-1.1
			C307.6,73.2,308.9,73.5,310,74.2z M302.9,76.2c-0.8,0.5-1.5,1.2-1.9,2c-0.5,0.9-0.7,2-0.7,3c0,1,0.2,2.1,0.7,3
			c0.4,0.8,1.1,1.5,1.9,2c0.8,0.5,1.7,0.7,2.7,0.7c1.4,0.1,2.8-0.5,3.8-1.5c1.9-2.4,1.9-5.8,0-8.3c-1-1-2.4-1.6-3.8-1.5
			C304.7,75.6,303.8,75.8,302.9,76.2L302.9,76.2z"/>
		<path class="st2" d="M327.7,74.2c1.2,0.6,2.1,1.6,2.7,2.7c1.3,2.6,1.3,5.8,0,8.4c-0.6,1.2-1.6,2.1-2.7,2.7c-2.5,1.3-5.4,1.3-7.9,0
			c-1.2-0.6-2.1-1.6-2.8-2.7c-1.3-2.6-1.3-5.8,0-8.4c0.6-1.2,1.6-2.1,2.8-2.7C322.3,72.9,325.2,72.9,327.7,74.2z M321.2,76.1
			c-0.8,0.4-1.5,1.1-1.9,1.9c-1,2-1,4.3,0,6.3c0.4,0.8,1.1,1.5,1.9,1.9c1.6,0.8,3.5,0.8,5.1,0c0.8-0.4,1.5-1.1,1.9-1.9
			c1-2,1-4.3,0-6.3c-0.4-0.8-1.1-1.5-1.9-1.9C324.7,75.3,322.8,75.3,321.2,76.1z"/>
		<path class="st2" d="M344.8,74.4c1,0.7,1.8,1.8,2.2,3v-4h2.5v15.4H347v-3.9c-0.4,1.2-1.1,2.3-2.2,3c-1.1,0.8-2.4,1.2-3.8,1.1
			c-1.3,0-2.5-0.3-3.6-1c-1.1-0.7-2-1.6-2.5-2.7c-1.2-2.7-1.2-5.7,0-8.4c0.6-1.1,1.4-2.1,2.5-2.7c1.1-0.7,2.4-1,3.6-1
			C342.4,73.1,343.7,73.6,344.8,74.4z M338,77c-1.9,2.4-1.9,5.8,0,8.3c1,1,2.4,1.6,3.8,1.5c0.9,0,1.9-0.2,2.7-0.7
			c0.8-0.5,1.4-1.2,1.9-2c0.5-0.9,0.7-2,0.7-3c0-1-0.2-2.1-0.7-3c-0.4-0.8-1.1-1.5-1.9-2c-0.8-0.5-1.8-0.7-2.7-0.7
			C340.4,75.4,339,75.9,338,77L338,77z"/>
		<path class="st2" d="M358.4,74.1c1.1-0.6,2.3-0.9,3.5-0.9v2.8h-0.8c-1.3-0.1-2.6,0.3-3.6,1.1c-1,0.9-1.5,2.3-1.4,3.7v8.1h-2.5
			V73.4h2.5v3.1C356.6,75.5,357.4,74.6,358.4,74.1z"/>
		<path class="st2" d="M374.5,74.4c1,0.7,1.8,1.8,2.2,3v-9.3h2.5v20.7h-2.5v-3.9c-0.4,1.2-1.1,2.3-2.2,3c-1.1,0.8-2.4,1.2-3.8,1.1
			c-1.3,0-2.5-0.3-3.6-1c-1.1-0.6-2-1.6-2.6-2.7c-1.2-2.7-1.2-5.7,0-8.4c0.6-1.1,1.4-2.1,2.5-2.7c1.1-0.7,2.4-1,3.6-1
			C372,73.2,373.4,73.6,374.5,74.4z M367.7,77c-1.9,2.4-1.9,5.8,0,8.3c1,1,2.4,1.6,3.8,1.5c0.9,0,1.9-0.2,2.7-0.7
			c0.8-0.5,1.4-1.2,1.9-2c0.5-0.9,0.7-2,0.7-3c0-1-0.2-2.1-0.7-3c-0.4-0.8-1.1-1.5-1.9-2c-0.8-0.5-1.8-0.7-2.7-0.7
			C370,75.4,368.6,75.9,367.7,77L367.7,77z"/>
	</g>
	<g>
		<path d="M118.6,88l-5.2-8.1h-2.8V88h-2.5V68.3h6.5c2.2,0,3.9,0.5,5,1.6s1.7,2.5,1.7,4.3c0,1.6-0.4,2.9-1.3,3.9
			c-0.9,1-2.2,1.6-3.9,1.8l5.4,8.1H118.6z M110.6,78.1h3.7c2.9,0,4.3-1.3,4.3-3.8s-1.4-3.8-4.3-3.8h-3.7V78.1z"/>
		<path d="M138.4,80.9h-12.3c0.1,1.8,0.6,3.1,1.5,3.9c0.9,0.9,2.1,1.3,3.5,1.3c1.2,0,2.3-0.3,3.1-0.9c0.8-0.6,1.3-1.5,1.5-2.5h2.7
			c-0.2,1.1-0.6,2-1.2,2.9s-1.5,1.5-2.5,2c-1,0.5-2.2,0.7-3.5,0.7c-1.5,0-2.8-0.3-3.9-1c-1.1-0.6-2-1.5-2.7-2.7
			c-0.6-1.2-1-2.6-1-4.2s0.3-3,1-4.2c0.6-1.2,1.5-2.1,2.7-2.7c1.1-0.6,2.4-1,3.9-1c1.5,0,2.8,0.3,3.9,1c1.1,0.6,2,1.5,2.5,2.5
			c0.6,1.1,0.9,2.2,0.9,3.5C138.6,80,138.5,80.5,138.4,80.9z M135.4,76.8c-0.4-0.8-1-1.3-1.8-1.7c-0.7-0.4-1.6-0.6-2.4-0.6
			c-1.4,0-2.6,0.4-3.5,1.3c-1,0.9-1.5,2.1-1.5,3.8h9.8C136,78.5,135.8,77.5,135.4,76.8z"/>
		<path d="M152,73.6c1,0.7,1.8,1.7,2.2,3v-3.9h2.5V88h-2.5v-3.9c-0.4,1.3-1.1,2.2-2.2,3c-1,0.7-2.3,1.1-3.8,1.1
			c-1.4,0-2.6-0.3-3.6-1s-1.9-1.5-2.5-2.7c-0.6-1.2-0.9-2.6-0.9-4.2s0.3-3,0.9-4.2c0.6-1.2,1.4-2.1,2.5-2.7c1.1-0.6,2.3-1,3.6-1
			C149.7,72.4,150.9,72.8,152,73.6z M145.1,76.2c-0.9,1-1.4,2.4-1.4,4.1s0.5,3.1,1.4,4.1c0.9,1,2.2,1.5,3.8,1.5c1,0,1.9-0.2,2.7-0.7
			c0.8-0.5,1.4-1.1,1.9-2c0.4-0.8,0.7-1.8,0.7-3s-0.2-2.1-0.7-3c-0.4-0.9-1.1-1.5-1.9-2c-0.8-0.5-1.7-0.7-2.7-0.7
			C147.3,74.7,146.1,75.2,145.1,76.2z"/>
		<path d="M172.4,74c1.3,1,2.1,2.4,2.4,4.2h-2.7c-0.2-1.1-0.7-2-1.5-2.6c-0.8-0.6-1.9-0.9-3.1-0.9c-0.9,0-1.7,0.2-2.5,0.6
			c-0.7,0.4-1.3,1-1.8,1.9c-0.4,0.8-0.7,1.9-0.7,3.2s0.2,2.3,0.7,3.1c0.4,0.8,1,1.5,1.8,1.9c0.7,0.4,1.6,0.6,2.5,0.6
			c1.2,0,2.3-0.3,3.1-1c0.8-0.6,1.3-1.5,1.5-2.6h2.7c-0.3,1.8-1.1,3.2-2.4,4.2c-1.3,1-2.9,1.6-4.9,1.6c-1.5,0-2.8-0.3-3.9-1
			c-1.1-0.6-2-1.5-2.7-2.7c-0.6-1.2-1-2.6-1-4.2s0.3-3,1-4.2c0.6-1.2,1.5-2.1,2.7-2.7c1.1-0.6,2.4-1,3.9-1
			C169.5,72.4,171.1,73,172.4,74z"/>
		<path d="M185.5,85.8V88h-1.9c-1.6,0-2.7-0.4-3.5-1.1c-0.8-0.7-1.2-2-1.2-3.8v-8.3h-2.3v-2.2h2.3v-3.8h2.6v3.8h4v2.2h-4v8.3
			c0,1,0.2,1.7,0.5,2c0.4,0.4,1,0.5,1.9,0.5H185.5z"/>
		<path d="M198.2,68.3v14.7c0,1.6-0.5,2.9-1.4,3.9c-0.9,0.9-2.2,1.4-3.9,1.4c-1.8,0-3.2-0.5-4.2-1.6c-1-1.1-1.5-2.5-1.5-4.4h2.5
			c0,1.1,0.3,2,0.8,2.7c0.5,0.7,1.3,1,2.3,1c1,0,1.7-0.3,2.2-0.8c0.4-0.6,0.7-1.3,0.7-2.1V68.3H198.2z"/>
		<path d="M214,85.5c-0.4,0.8-1.1,1.5-2,2c-0.9,0.5-2,0.8-3.4,0.8c-1.3,0-2.5-0.2-3.5-0.7c-1-0.5-1.8-1.1-2.4-2
			c-0.6-0.8-1-1.8-1-2.8h2.7c0.1,0.6,0.2,1.1,0.6,1.6c0.3,0.5,0.8,1,1.4,1.3c0.6,0.3,1.3,0.5,2.2,0.5c1.1,0,2-0.3,2.6-0.9
			c0.6-0.6,0.9-1.4,0.9-2.3c0-0.8-0.2-1.5-0.6-2c-0.4-0.5-0.9-0.9-1.6-1.2c-0.6-0.3-1.5-0.6-2.5-0.9c-1.3-0.4-2.3-0.8-3-1.2
			s-1.4-0.9-1.9-1.6c-0.5-0.7-0.8-1.7-0.8-2.9c0-1,0.2-1.9,0.7-2.7c0.5-0.8,1.2-1.4,2.1-1.8c0.9-0.4,2-0.6,3.3-0.6
			c1.9,0,3.5,0.5,4.6,1.4c1.1,0.9,1.8,2.1,2,3.6h-2.7c-0.2-0.8-0.6-1.5-1.2-2.1c-0.7-0.6-1.5-0.9-2.7-0.9c-1,0-1.8,0.3-2.5,0.8
			c-0.6,0.5-0.9,1.3-0.9,2.3c0,0.8,0.2,1.4,0.6,1.9c0.4,0.5,0.9,0.8,1.5,1.1c0.6,0.3,1.4,0.6,2.5,0.9c1.3,0.4,2.3,0.8,3.1,1.2
			c0.8,0.4,1.4,0.9,2,1.7s0.8,1.8,0.8,3C214.6,83.8,214.4,84.7,214,85.5z"/>
	</g>
</g>
<g>
	<path class="st2" d="M140.7,23.4v28.5h-6.9V34.1l-6.2,17.8h-6l-6.2-17.9v17.9h-6.9V23.4h8.5l7.8,19.9l7.6-19.9H140.7z"/>
	<path class="st2" d="M163.3,46.7h-10.8l-1.8,5.2h-7.3L154,23.4h8l10.5,28.5h-7.4L163.3,46.7z M161.5,41.4l-3.6-10.6l-3.6,10.6
		H161.5z"/>
	<path class="st2" d="M197.5,25.6c2.3,1.8,3.8,4.1,4.3,7.1h-7.3c-0.5-1-1.2-1.8-2.2-2.5c-1-0.6-2.2-0.9-3.6-0.9
		c-2.2,0-4,0.7-5.3,2.2c-1.3,1.5-2,3.5-2,6c0,2.7,0.7,4.8,2.1,6.3c1.4,1.5,3.4,2.2,5.9,2.2c1.7,0,3.1-0.5,4.3-1.4
		c1.2-0.9,2.1-2.2,2.6-3.9h-8.8v-5h14.6v6.9c-0.5,1.7-1.4,3.2-2.6,4.7c-1.2,1.4-2.7,2.6-4.6,3.5c-1.9,0.9-4,1.3-6.4,1.3
		c-2.9,0-5.4-0.6-7.6-1.8c-2.2-1.2-3.8-3-5-5.2c-1.2-2.2-1.8-4.7-1.8-7.6c0-2.8,0.6-5.4,1.8-7.6c1.2-2.2,2.8-3.9,5-5.2
		c2.2-1.2,4.7-1.8,7.5-1.8C192.2,23,195.1,23.8,197.5,25.6z"/>
	<path class="st2" d="M213,28.8v6h9.7V40H213v6.4h10.9v5.6h-17.9V23.2h17.9v5.5H213z"/>
	<path class="st2" d="M260.1,23.4v28.5h-6.9V34.1L247,51.9h-6l-6.2-17.9v17.9h-6.9V23.4h8.5l7.8,19.9l7.6-19.9H260.1z"/>
	<path class="st2" d="M282.7,46.7H272l-1.8,5.2h-7.3l10.5-28.5h8l10.5,28.5h-7.4L282.7,46.7z M280.9,41.4l-3.6-10.6l-3.6,10.6H280.9
		z"/>
	<path class="st2" d="M312,51.9l-6-8.9l-5.2,8.9h-8l9.2-14.8l-9.5-13.9h8.2l5.9,8.6l5.1-8.6h7.9l-9.1,14.5l9.7,14.2H312z"/>
</g>
</svg>
